:version 1.10
:name ASF
:units
  mass 1
  length 1
  angle deg
:documentation
  ASF file generated by Kaydara
:root
  axis xyz
  order  tx ty tz rx ry rz
  position 0 0 0
  orientation 0 0 0
:bonedata
  begin
    id 1
    name lfemurDummy
    direction 0.61522 -0.761478 0.204097
    length 5.68318
    axis 0 -0 0 xyz
  end
  begin
    id 2
    name lfemur
    direction 0.34202 -0.939693 -5.84747e-008
    length 16.9147
    axis 0 -0 20 xyz
    dof rx ry rz
    limits( -inf , inf )
( -inf , inf )
( -inf , inf )

  end
  begin
    id 3
    name ltibia
    direction 0.34202 -0.939693 1.20839e-009
    length 18.0532
    axis 0 -0 20 xyz
    dof rz ry rx
    limits( -inf , inf )
( -inf , inf )
( -inf , inf )

  end
  begin
    id 4
    name lfoot
    direction 0.0841971 -0.23133 0.969225
    length 5.23822
    axis -90 7.62852e-016 20 xyz
    dof ry rx rz
    limits( -inf , inf )
( -inf , inf )
( -inf , inf )

  end
  begin
    id 5
    name ltoes
    direction 0 0 0
    length 0
    axis 0 0 0 xyz
    dof rz ry rx
    limits( -inf , inf )
( -inf , inf )
( -inf , inf )

  end
  begin
    id 6
    name rfemurDummy
    direction -0.625247 -0.75382 0.202044
    length 5.74091
    axis 0 -0 0 xyz
  end
  begin
    id 7
    name rfemur
    direction -0.34202 -0.939693 -1.47013e-008
    length 16.4922
    axis 0 -0 -20 xyz
    dof rx ry rz
    limits( -inf , inf )
( -inf , inf )
( -inf , inf )

  end
  begin
    id 8
    name rtibia
    direction -0.34202 -0.939693 -7.74345e-010
    length 18.2421
    axis 0 -0 -20 xyz
    dof rz ry rx
    limits( -inf , inf )
( -inf , inf )
( -inf , inf )

  end
  begin
    id 9
    name rfoot
    direction -0.124331 -0.341598 0.931586
    length 5.45787
    axis -90 -7.62852e-016 -20 xyz
    dof ry rx rz
    limits( -inf , inf )
( -inf , inf )
( -inf , inf )

  end
  begin
    id 10
    name rtoes
    direction 0 0 0
    length 0
    axis 0 0 0 xyz
    dof rz ry rx
    limits( -inf , inf )
( -inf , inf )
( -inf , inf )

  end
  begin
    id 11
    name lowerbackDummy
    direction 0 0 0
    length 0
    axis 0 -0 0 xyz
  end
  begin
    id 12
    name lowerback
    direction -0.0218484 0.994884 -0.0986304
    length 4.45607
    axis 0 -0 0 xyz
    dof rx ry rz
    limits( -inf , inf )
( -inf , inf )
( -inf , inf )

  end
  begin
    id 13
    name upperback
    direction -0.00973057 0.999717 -0.0217111
    length 4.47449
    axis 0 -0 0 xyz
    dof rx ry rz
    limits( -inf , inf )
( -inf , inf )
( -inf , inf )

  end
  begin
    id 14
    name thorax
    direction -0.000928171 0.999699 0.0245198
    length 4.50973
    axis 0 -0 0 xyz
    dof rx ry rz
    limits( -inf , inf )
( -inf , inf )
( -inf , inf )

  end
  begin
    id 15
    name rclavicle
    direction -0.9009 0.425937 -0.0834055
    length 7.28587
    axis 0 -0 0 xyz
    dof rx ry rz
    limits( -inf , inf )
( -inf , inf )
( -inf , inf )

  end
  begin
    id 16
    name rhumerus
    direction -1 -2.23604e-007 -1.42637e-007
    length 13.5704
    axis 180 30 90 xyz
    dof rx ry rz
    limits( -inf , inf )
( -inf , inf )
( -inf , inf )

  end
  begin
    id 17
    name rradius
    direction -1 5.68281e-008 -4.4952e-007
    length 8.06782
    axis 180 30 90 xyz
    dof rz ry rx
    limits( -inf , inf )
( -inf , inf )
( -inf , inf )

  end
  begin
    id 18
    name rwrist
    direction -1 1.51393e-007 1.38143e-007
    length 4.03391
    axis -90 -90 0 xyz
    dof rz rx ry
    limits( -inf , inf )
( -inf , inf )
( -inf , inf )

  end
  begin
    id 19
    name rthumb
    direction 0 0 0
    length 0
    axis 0 0 0 xyz
    dof ry rx rz
    limits( -inf , inf )
( -inf , inf )
( -inf , inf )

  end
  begin
    id 20
    name rhand
    direction -1 -3.34077e-007 -5.59631e-007
    length 1.29744
    axis -90 -90 0 xyz
    dof ry rx rz
    limits( -inf , inf )
( -inf , inf )
( -inf , inf )

  end
  begin
    id 21
    name rfingers
    direction 0 0 0
    length 0
    axis 0 0 0 xyz
    dof rz ry rx
    limits( -inf , inf )
( -inf , inf )
( -inf , inf )

  end
  begin
    id 22
    name lclavicle
    direction 0.940017 0.332249 -0.0773232
    length 8.29589
    axis 0 -0 0 xyz
    dof rx ry rz
    limits( -inf , inf )
( -inf , inf )
( -inf , inf )

  end
  begin
    id 23
    name lhumerus
    direction 1 7.41158e-008 -1.44768e-008
    length 12.0042
    axis 180 -30 -90 xyz
    dof rx ry rz
    limits( -inf , inf )
( -inf , inf )
( -inf , inf )

  end
  begin
    id 24
    name lradius
    direction 1 -1.32972e-007 3.10821e-007
    length 8.1902
    axis 180 -30 -90 xyz
    dof rz ry rx
    limits( -inf , inf )
( -inf , inf )
( -inf , inf )

  end
  begin
    id 25
    name lwrist
    direction 1 3.08957e-007 4.01394e-007
    length 4.09509
    axis -90 90 0 xyz
    dof rz rx ry
    limits( -inf , inf )
( -inf , inf )
( -inf , inf )

  end
  begin
    id 26
    name lthumb
    direction 0 0 0
    length 0
    axis 0 0 0 xyz
    dof ry rx rz
    limits( -inf , inf )
( -inf , inf )
( -inf , inf )

  end
  begin
    id 27
    name lhand
    direction 1 -1.64125e-007 -6.99514e-007
    length 1.37229
    axis -90 90 0 xyz
    dof ry rx rz
    limits( -inf , inf )
( -inf , inf )
( -inf , inf )

  end
  begin
    id 28
    name lfingers
    direction 0 0 0
    length 0
    axis 0 0 0 xyz
    dof rz ry rx
    limits( -inf , inf )
( -inf , inf )
( -inf , inf )

  end
  begin
    id 29
    name lowerneck
    direction -0.030798 0.998024 0.0547665
    length 3.93918
    axis 0 -0 0 xyz
    dof rx ry rz
    limits( -inf , inf )
( -inf , inf )
( -inf , inf )

  end
  begin
    id 30
    name upperneck
    direction 0.0531588 0.996611 -0.0627736
    length 3.95491
    axis 0 -0 0 xyz
    dof rx ry rz
    limits( -inf , inf )
( -inf , inf )
( -inf , inf )

  end
  begin
    id 31
    name head
    direction 0 0 0
    length 0
    axis 0 0 0 xyz
    dof rx ry rz
    limits( -inf , inf )
( -inf , inf )
( -inf , inf )

  end
:hierarchy
  begin
    root lfemurDummy rfemurDummy lowerbackDummy
    lfemurDummy lfemur
    lfemur ltibia
    ltibia lfoot
    lfoot ltoes
    rfemurDummy rfemur
    rfemur rtibia
    rtibia rfoot
    rfoot rtoes
    lowerbackDummy lowerback
    lowerback upperback
    upperback thorax
    thorax rclavicle lclavicle lowerneck
    rclavicle rhumerus
    rhumerus rradius
    rradius rwrist
    rwrist rthumb rhand
    rhand rfingers
    lclavicle lhumerus
    lhumerus lradius
    lradius lwrist
    lwrist lthumb lhand
    lhand lfingers
    lowerneck upperneck
    upperneck head
  end

:SAMPLES-PER-SECOND 30
:FULLY-SPECIFIED
:DEGREES
83
root  4.433933393 39.6013335 2.326133308 -6.62902832 -46.53999329 6.570007324
lowerback  8.803910255 3.161750078 -1.60097003
upperback  2.215810061 4.056350231 0.870472014
thorax  -2.80272007 2.015310049 1.344159961
lowerneck  -8.152029991 7.922399998 -3.581909895
upperneck  14.83640003 10.97060013 1.66989994
head  5.524549961 5.25248003 1.848569989
lclavicle  0 -9.442270133e-015 7.951389973e-016
lhumerus  -1.423050046 -17.87150002 82.29270172
lradius  2.604417597e-031 -2.384502677e-031 137.5240021
lwrist  -3.531125038e-031 -0 0.0807325989
lhand  -1.496451383e-031 -27.76390076 20.11240005
lfingers  90 7.125020027 -90
lthumb  89.89689403 5.08795885 91.16245106
rclavicle  0 -9.442270133e-015 7.951389973e-016
rhumerus  7.208469868 29.71619987 -79.41159821
rradius  -2.627969105e-031 2.358521236e-031 138.0930023
rwrist  0 -1.765562519e-031 -5.77891016
rhand  -7.920061211e-032 -33.2840004 9.303460121
rfingers  -90 -7.125020027 -90
rthumb  -92.93752616 -24.25625642 -97.11982154
rfemur  -5.888030052 6.533390045 10.4939003
rtibia  -0 0 53.38959885
rfoot  -0 -21.81439972 -11.37749958
rtoes  5.373923086 19.29304026 -105.8922705
lfemur  -21.56570053 9.77534008 -17.65460014
ltibia  -0 0 58.99089813
lfoot  4.542514691e-032 -13.66639996 3.183830023
ltoes  -4.250644065 -19.5611806 -102.515957
84
root  4.435755512 39.54511027 2.392511105 -6.427978516 -47.69200134 6.434020996
lowerback  8.673000336 3.45520997 -1.282819986
upperback  1.995640039 4.478559971 0.8345000148
thorax  -2.947099924 2.226449966 1.081110001
lowerneck  -8.139300346 8.030409813 -3.549180031
upperneck  14.73989964 11.11989975 1.614519954
head  5.49353981 5.325669765 1.832059979
lclavicle  0 -9.442270133e-015 7.951389973e-016
lhumerus  -2.562920094 -17.98579979 82.51750183
lradius  2.610983437e-031 -2.377311408e-031 137.6820068
lwrist  -1.412450015e-030 -3.531125038e-031 -0.07958819717
lhand  -1.496451383e-031 -27.76390076 20.11240005
lfingers  90 7.125020027 -90
lthumb  89.89689403 5.08795885 91.16245106
rclavicle  0 -9.442270133e-015 7.951389973e-016
rhumerus  6.838940144 29.94339943 -79.75669861
rradius  -2.622940765e-031 2.364112049e-031 137.970993
rwrist  7.062250077e-031 -1.765562519e-031 -5.685319901
rhand  -7.920061211e-032 -33.2840004 9.303460121
rfingers  -90 -7.125020027 -90
rthumb  -92.93752616 -24.25625642 -97.11982154
rfemur  -4.809929848 7.055220127 10.76509953
rtibia  -0 0 51.19469833
rfoot  -0 -24.42910004 -10.57820034
rtoes  5.373923086 19.29304026 -105.8922705
lfemur  -22.11989975 10.41359997 -16.94050026
ltibia  -0 0 60.17129898
lfoot  4.516166559e-032 -12.2159996 2.018290043
ltoes  -4.250644065 -19.5611806 -102.515957
85
root  4.462244379 39.5228889 2.448222205 -6.177001953 -48.90400696 6.143981934
lowerback  8.828490257 3.745029926 -0.7348530293
upperback  1.783859968 4.912469864 0.7809090018
thorax  -3.215509892 2.439130068 0.6530719995
lowerneck  -8.093330383 8.148779869 -3.487050056
upperneck  14.58279991 11.26729965 1.618690014
head  5.43599987 5.405640125 1.825139999
lclavicle  0 -9.442270133e-015 7.951389973e-016
lhumerus  -3.669630051 -18.23240089 82.64499664
lradius  2.613719932e-031 -2.374302456e-031 137.7480011
lwrist  -7.062250077e-031 -0 -0.7289130092
lhand  -1.496451383e-031 -27.76390076 20.11240005
lfingers  90 7.125020027 -90
lthumb  89.89689403 5.08795885 91.16245106
rclavicle  0 -9.442270133e-015 7.951389973e-016
rhumerus  6.513269901 30.14450073 -80.23339844
rradius  -2.614920996e-031 2.372979608e-031 137.7769928
rwrist  7.062250077e-031 -1.765562519e-031 -5.702670097
rhand  -7.920061211e-032 -33.2840004 9.303460121
rfingers  -90 -7.125020027 -90
rthumb  -92.93752616 -24.25625642 -97.11982154
rfemur  -3.917140007 7.896989822 11.07839966
rtibia  -0 0 49.22890091
rfoot  -0 -26.17140007 -9.270030022
rtoes  5.373923086 19.29304026 -105.8922705
lfemur  -22.7343998 11.05270004 -15.98149967
ltibia  -0 0 61.43930054
lfoot  5.041994168e-032 -9.983650208 0.5424029827
ltoes  -4.250644065 -19.5611806 -102.515957
86
root  4.517933327 39.51377869 2.489955594 -6.059020996 -50.1230011 6.002990723
lowerback  9.090820313 4.008759975 -0.1245779991
upperback  1.664430022 5.31498003 0.6407979727
thorax  -3.423939943 2.63161993 0.1001589969
lowerneck  -8.013299942 8.235170364 -3.386379957
upperneck  14.26410007 11.37370014 1.540809989
head  5.330920219 5.46544981 1.778020024
lclavicle  0 -9.442270133e-015 7.951389973e-016
lhumerus  -4.610720158 -18.44440079 82.5582962
lradius  2.620175024e-031 -2.367176986e-031 137.904007
lwrist  -7.062250077e-031 -0 -1.64260006
lhand  -1.496451383e-031 -27.76390076 20.11240005
lfingers  90 7.125020027 -90
lthumb  89.89689403 5.08795885 91.16245106
rclavicle  0 -9.442270133e-015 7.951389973e-016
rhumerus  6.436130047 30.29070091 -80.71250153
rradius  -2.602377559e-031 2.386728949e-031 137.4750061
rwrist  7.062250077e-031 -1.765562519e-031 -5.779870033
rhand  -7.920061211e-032 -33.2840004 9.303460121
rfingers  -90 -7.125020027 -90
rthumb  -92.93752616 -24.25625642 -97.11982154
rfemur  -3.401979923 8.742959976 11.12530041
rtibia  -0 0 47.67660141
rfoot  -0 -26.36599922 -9.991410255
rtoes  5.373923086 19.29304026 -105.8922705
lfemur  -23.49300003 11.54160023 -15.07079983
ltibia  -0 0 62.7635994
lfoot  4.448819478e-032 -7.18280983 -1.268519998
ltoes  -4.250644065 -19.5611806 -102.515957
87
root  4.592689004 39.52600074 2.536377757 -5.776000977 -51.54299927 5.66998291
lowerback  9.324729919 4.299369812 0.6733660102
upperback  1.645480037 5.774529934 0.5508589745
thorax  -3.487890005 2.849090099 -0.5055059791
lowerneck  -8.089909554 8.288100243 -3.211070061
upperneck  14.05179977 11.45820045 1.288869977
head  5.30174017 5.502160072 1.678050041
lclavicle  0 -9.442270133e-015 7.951389973e-016
lhumerus  -5.535870075 -18.46520042 82.42590332
lradius  2.63368284e-031 -2.352139182e-031 138.2319946
lwrist  -7.062250077e-031 -3.531125038e-031 -2.529900074
lhand  -1.496451383e-031 -27.76390076 20.11240005
lfingers  90 7.125020027 -90
lthumb  89.89689403 5.08795885 91.16245106
rclavicle  0 -9.442270133e-015 7.951389973e-016
rhumerus  6.533770084 30.41830063 -81.08260345
rradius  -2.58976119e-031 2.400412677e-031 137.1730042
rwrist  7.062250077e-031 -1.765562519e-031 -5.940330029
rhand  -7.920061211e-032 -33.2840004 9.303460121
rfingers  -90 -7.125020027 -90
rthumb  -92.93752616 -24.25625642 -97.11982154
rfemur  -3.257339954 9.532730103 11.12040043
rtibia  -0 0 46.49560165
rfoot  -0 -26.29450035 -10.25580025
rtoes  5.373923086 19.29304026 -105.8922705
lfemur  -24.26169968 12.1864996 -13.93239975
ltibia  -0 0 64.01799774
lfoot  4.424486001e-032 -3.963049889 -3.318720102
ltoes  -4.250644065 -19.5611806 -102.515957
88
root  4.692777874 39.54288753 2.593911163 -5.17401123 -53.09500122 5.078979492
lowerback  9.606309891 4.61702013 1.639320016
upperback  1.582190037 6.29527998 0.5249000192
thorax  -3.597520113 3.093349934 -1.151139975
lowerneck  -8.390669823 8.367239952 -3.113729954
upperneck  14.14659977 11.58180046 1.184610009
head  5.391479969 5.556019783 1.658259988
lclavicle  0 -9.442270133e-015 7.951389973e-016
lhumerus  -6.638609886 -18.375 82.37400055
lradius  2.650772547e-031 -2.332862821e-031 138.6499939
lwrist  -3.531125038e-031 -0 -3.167730093
lhand  -1.496451383e-031 -27.76390076 20.11240005
lfingers  90 7.125020027 -90
lthumb  89.89689403 5.08795885 91.16245106
rclavicle  0 -9.442270133e-015 7.951389973e-016
rhumerus  6.603290081 30.49830055 -81.40570068
rradius  -2.578715512e-031 2.412274932e-031 136.9100037
rwrist  7.062250077e-031 -0 -5.999159813
rhand  -7.920061211e-032 -33.2840004 9.303460121
rfingers  -90 -7.125020027 -90
rthumb  -92.93752616 -24.25625642 -97.11982154
rfemur  -3.537349939 10.25599957 11.09350014
rtibia  -0 0 45.68669891
rfoot  -0 -26.02729988 -9.127710342
rtoes  5.373923086 19.29304026 -105.8922705
lfemur  -25.13920021 12.98960018 -12.58520031
ltibia  -0 0 65.15370178
lfoot  8.82820829e-032 -0.5424789786 -5.375490189
ltoes  -4.250644065 -19.5611806 -102.515957
89
root  4.812422324 39.58777781 2.6836889 -4.25402832 -54.60099792 4.24597168
lowerback  9.885809898 4.855169773 2.752710104
upperback  1.469599962 6.737229824 0.5801249743
thorax  -3.735800028 3.293970108 -1.786939979
lowerneck  -8.639430046 8.506290436 -3.020090103
upperneck  14.28359985 11.79599953 1.010730028
head  5.488550186 5.647510052 1.623049974
lclavicle  0 -9.442270133e-015 7.951389973e-016
lhumerus  -8.005729675 -18.23320007 82.44110107
lradius  2.672117845e-031 -2.308382607e-031 139.177002
lwrist  -1.059337512e-030 -0 -3.754610062
lhand  -1.496451383e-031 -27.76390076 20.11240005
lfingers  90 7.125020027 -90
lthumb  89.89689403 5.08795885 91.16245106
rclavicle  0 -9.442270133e-015 7.951389973e-016
rhumerus  6.621809959 30.6840992 -81.65570068
rradius  -2.565245021e-031 2.426594738e-031 136.5910034
rwrist  7.062250077e-031 -0 -5.940489769
rhand  -7.920061211e-032 -33.2840004 9.303460121
rfingers  -90 -7.125020027 -90
rthumb  -92.93752616 -24.25625642 -97.11982154
rfemur  -4.128660202 10.85830021 11.04240036
rtibia  -0 0 45.12419891
rfoot  -9.783478713e-032 -25.53549957 -7.090769768
rtoes  5.373923086 19.29304026 -105.8922705
lfemur  -26.09819984 13.62030029 -11.17029953
ltibia  -0 0 66.10050201
lfoot  -0 2.778249979 -7.266970158
ltoes  -4.250644065 -19.5611806 -102.515957
